<svg width="100" height="90" viewBox="0 0 100 90" fill="none" xmlns="http://www.w3.org/2000/svg">
<g id="ADE 1" filter="url(#filter0_d_843_15219)">
<path id="Vector" d="M18.798 78.2112C18.8797 78.4562 18.9341 78.6468 18.9613 78.8101C18.9885 78.9463 18.9613 79.0551 18.8797 79.1368C18.798 79.2185 18.6347 79.2456 18.4442 79.2729C18.2537 79.3001 17.9271 79.3001 17.5734 79.3001C17.1923 79.3001 16.8658 79.3001 16.648 79.2729C16.4303 79.2729 16.267 79.2456 16.1582 79.2185C16.0493 79.1913 15.9676 79.1368 15.9132 79.0824C15.8588 79.0279 15.8316 78.9463 15.8043 78.8645L14.7974 76.1693H9.19111L8.23858 78.7829C8.21137 78.8918 8.15694 78.9734 8.12973 79.0279C8.0753 79.0824 7.99365 79.1368 7.88479 79.1913C7.77593 79.2185 7.61264 79.2456 7.42214 79.2729C7.23163 79.3001 6.95948 79.3001 6.6329 79.3001C6.27911 79.3001 6.00696 79.3001 5.81645 79.2729C5.62595 79.2456 5.48987 79.1913 5.40823 79.1095C5.29937 79.0279 5.27215 78.919 5.29937 78.7556C5.32658 78.6195 5.38101 78.4289 5.46266 78.1839L10.0348 66.2869C10.0892 66.178 10.1436 66.0691 10.1981 66.0146C10.2525 65.933 10.3614 65.8785 10.4974 65.8514C10.6335 65.8241 10.824 65.7969 11.0417 65.7696C11.2867 65.7696 11.586 65.7424 11.9943 65.7424C12.4569 65.7424 12.8107 65.7424 13.0829 65.7696C13.355 65.7696 13.5727 65.7969 13.7088 65.8514C13.8449 65.8785 13.9537 65.933 14.0354 66.0146C14.0898 66.0964 14.1442 66.2052 14.1986 66.3141L18.798 78.2112ZM11.967 68.3559L9.84427 74.0459H14.0626L11.967 68.3559Z" fill="#F16123"/>
<path id="Vector_2" d="M35.5896 72.3034C35.5896 73.5285 35.3991 74.5902 35.0454 75.4614C34.6915 76.3326 34.1745 77.0405 33.5212 77.6121C32.8681 78.1566 32.0517 78.565 31.0991 78.8372C30.1466 79.1094 29.0036 79.2184 27.6972 79.2184H24.1593C23.9144 79.2184 23.6966 79.1639 23.5333 79.0278C23.3701 78.8917 23.2612 78.6739 23.2612 78.3744V66.668C23.2612 66.3685 23.3429 66.1507 23.5333 66.0146C23.6966 65.8784 23.9144 65.824 24.1593 65.824H27.9694C29.303 65.824 30.4188 65.9602 31.3441 66.2324C32.2694 66.5047 33.0314 66.9402 33.6845 67.4847C34.3105 68.0292 34.8003 68.7098 35.127 69.5266C35.4536 70.3433 35.5896 71.2417 35.5896 72.3034ZM32.4599 72.4123C32.4599 71.7861 32.3782 71.1872 32.2149 70.6427C32.0517 70.0982 31.7795 69.6354 31.4257 69.2271C31.0719 68.8187 30.5821 68.5192 30.0105 68.3015C29.439 68.0836 28.7042 67.9747 27.7517 67.9747H26.2276V77.0949H27.8061C28.6226 77.0949 29.3302 76.986 29.9017 76.7954C30.4732 76.6049 30.9358 76.3054 31.3169 75.9243C31.6979 75.5431 31.97 75.053 32.1605 74.4541C32.351 73.8552 32.4599 73.1746 32.4599 72.4123Z" fill="#F16123"/>
<path id="Vector_3" d="M49.2246 78.1566C49.2246 78.3472 49.2246 78.5378 49.1974 78.6467C49.1702 78.7828 49.1429 78.8917 49.1158 78.9733C49.0886 79.0551 49.0341 79.1094 48.9796 79.1639C48.9253 79.1912 48.8708 79.2184 48.7892 79.2184H41.3322C41.0873 79.2184 40.8696 79.1639 40.7064 79.0278C40.5431 78.8917 40.4614 78.6739 40.4614 78.3744V66.668C40.4614 66.3685 40.5431 66.1507 40.7064 66.0146C40.8696 65.8784 41.0873 65.824 41.3322 65.824H48.762C48.8436 65.824 48.898 65.8512 48.9525 65.8784C49.0069 65.9057 49.0613 65.9602 49.0886 66.069C49.1158 66.1507 49.1429 66.2596 49.1702 66.3957C49.1974 66.5318 49.1974 66.6952 49.1974 66.913C49.1974 67.1035 49.1974 67.2669 49.1702 67.403C49.1429 67.5391 49.1158 67.648 49.0886 67.7297C49.0613 67.8114 49.0069 67.8659 48.9525 67.9203C48.898 67.9475 48.8436 67.9747 48.762 67.9747H43.455V71.2417H47.9455C48.0271 71.2417 48.0816 71.2689 48.136 71.2961C48.1904 71.3233 48.2449 71.405 48.272 71.4594C48.2993 71.5411 48.3265 71.65 48.3538 71.7861C48.381 71.9223 48.381 72.0856 48.381 72.2761C48.381 72.4667 48.381 72.6301 48.3538 72.7662C48.3265 72.9024 48.2993 73.0112 48.272 73.0929C48.2449 73.1746 48.1904 73.229 48.136 73.2562C48.0816 73.2835 48.0271 73.3107 47.9455 73.3107H43.455V77.0949H48.8164C48.898 77.0949 48.9525 77.1221 49.0069 77.1494C49.0613 77.1766 49.1158 77.2582 49.1429 77.3399C49.1702 77.4216 49.1974 77.5305 49.2246 77.6666C49.2246 77.7755 49.2246 77.9388 49.2246 78.1566Z" fill="#F16123"/>
<path id="Vector_4" d="M66.1248 78.211C66.2064 78.456 66.2609 78.6467 66.2881 78.81C66.3154 78.9461 66.2881 79.055 66.2065 79.1366C66.1248 79.2184 65.9615 79.2456 65.771 79.2728C65.5805 79.3 65.2539 79.3 64.9002 79.3C64.5191 79.3 64.1926 79.3 63.9748 79.2728C63.7572 79.2728 63.5938 79.2456 63.485 79.2184C63.3761 79.1911 63.2945 79.1366 63.24 79.0823C63.1856 79.0278 63.1584 78.9461 63.1312 78.8644L62.1242 76.1692H56.5451L55.5926 78.7828C55.5654 78.8917 55.511 78.9734 55.4838 79.0278C55.4293 79.0823 55.3477 79.1367 55.2388 79.1911C55.13 79.2184 54.9666 79.2456 54.7762 79.2728C54.5857 79.3 54.3135 79.3 53.9869 79.3C53.6332 79.3 53.361 79.3 53.1705 79.2728C52.98 79.2456 52.8439 79.1911 52.7623 79.1095C52.6806 79.0278 52.6534 78.9189 52.6806 78.7828C52.7078 78.6467 52.7623 78.456 52.8439 78.211L57.416 66.314C57.4705 66.2051 57.5248 66.0963 57.5793 66.0418C57.6338 65.9601 57.7426 65.9056 57.8787 65.8784C58.0148 65.8513 58.2053 65.824 58.423 65.7968C58.6679 65.7968 58.9673 65.7695 59.3755 65.7695C59.8381 65.7695 60.192 65.7695 60.4641 65.7968C60.7363 65.7968 60.9539 65.824 61.09 65.8784C61.2261 65.9329 61.335 65.9601 61.4166 66.0418C61.4983 66.1235 61.5255 66.2324 61.5799 66.3412L66.1248 78.211ZM59.3211 68.3558L57.1983 74.0458H61.4166L59.3211 68.3558Z" fill="#F16123"/>
<path id="Vector_5" d="M79.3784 75.1893C79.3784 75.8971 79.2423 76.5232 78.943 77.0405C78.6436 77.585 78.2626 78.0206 77.7727 78.3745C77.2828 78.7284 76.6841 79.0007 76.0309 79.1913C75.3778 79.3818 74.643 79.4635 73.8809 79.4635C73.3639 79.4635 72.9012 79.4363 72.4385 79.3546C71.9759 79.2729 71.6221 79.1913 71.2684 79.0824C70.9417 78.9734 70.6424 78.8645 70.4247 78.7557C70.2069 78.6468 70.0436 78.5378 69.9348 78.4562C69.8259 78.3745 69.7715 78.2384 69.7171 78.0751C69.6626 77.9117 69.6626 77.6667 69.6626 77.34C69.6626 77.1222 69.6626 76.9588 69.6899 76.7955C69.7171 76.6594 69.7171 76.5232 69.7715 76.4416C69.7987 76.3599 69.8532 76.2782 69.9075 76.251C69.962 76.2237 70.0436 76.1966 70.0981 76.1966C70.2069 76.1966 70.343 76.251 70.5608 76.3599C70.7512 76.4688 70.9962 76.605 71.3227 76.7411C71.6221 76.8772 72.0032 77.0133 72.4114 77.1222C72.8468 77.2311 73.3366 77.2856 73.8809 77.2856C74.262 77.2856 74.5885 77.2583 74.8607 77.1766C75.16 77.095 75.405 76.9861 75.5955 76.85C75.786 76.7138 75.9493 76.5232 76.0582 76.3055C76.167 76.0876 76.2215 75.8426 76.2215 75.5976C76.2215 75.2981 76.1398 75.0259 75.9493 74.8081C75.7588 74.5903 75.5139 74.3998 75.2417 74.2364C74.9424 74.0731 74.6157 73.9097 74.2348 73.7464C73.8538 73.5831 73.4727 73.4469 73.0645 73.2836C72.6563 73.1202 72.2753 72.9297 71.8942 72.7118C71.5133 72.4941 71.1867 72.2491 70.8873 71.9496C70.5879 71.6501 70.343 71.2962 70.1797 70.915C69.9893 70.5067 69.9075 70.0439 69.9075 69.4722C69.9075 68.8188 70.0436 68.2743 70.3158 67.7842C70.5879 67.2942 70.9417 66.8859 71.3772 66.5591C71.8126 66.2325 72.3569 65.9874 72.9557 65.8513C73.5544 65.7152 74.2075 65.6063 74.8879 65.6063C75.2417 65.6063 75.5955 65.6335 75.9493 65.688C76.3031 65.7424 76.6297 65.7969 76.929 65.8785C77.2284 65.9603 77.5006 66.0419 77.7455 66.1508C77.9904 66.2597 78.1265 66.3414 78.2081 66.423C78.2898 66.5047 78.3442 66.5591 78.3715 66.5864C78.3987 66.6136 78.4258 66.6953 78.4531 66.777C78.4803 66.8586 78.4803 66.9675 78.4803 67.0764C78.4803 67.1854 78.4803 67.3486 78.4803 67.5392C78.4803 67.7298 78.4803 67.9203 78.4531 68.0565C78.4531 68.1926 78.4258 68.3015 78.3987 68.4104C78.3715 68.5193 78.3442 68.5737 78.2897 68.601C78.2354 68.6554 78.1809 68.6554 78.0993 68.6554C78.0176 68.6554 77.8815 68.601 77.6911 68.5193C77.5006 68.4104 77.2828 68.3287 77.0107 68.1926C76.7385 68.0837 76.4391 67.9748 76.0854 67.8931C75.7316 67.8115 75.3506 67.757 74.9151 67.757C74.5885 67.757 74.2892 67.7842 74.0442 67.866C73.7993 67.9476 73.5816 68.0293 73.4183 68.1654C73.255 68.3015 73.119 68.4376 73.0373 68.6282C72.9557 68.8188 72.9284 69.0093 72.9284 69.1999C72.9284 69.4994 73.01 69.7444 73.2006 69.9622C73.3911 70.18 73.6088 70.3705 73.9354 70.5339C74.2348 70.6973 74.5885 70.8606 74.9696 71.0239C75.3506 71.1601 75.7315 71.3234 76.1398 71.4867C76.5481 71.6501 76.9291 71.8407 77.31 72.0585C77.6911 72.2762 78.0448 72.5213 78.3442 72.8207C78.6436 73.1202 78.8885 73.4469 79.079 73.8553C79.2967 74.1819 79.3784 74.6448 79.3784 75.1893Z" fill="#F16123"/>
<path id="Vector_6" d="M92.8502 78.1566C92.8502 78.3472 92.8502 78.5378 92.823 78.6467C92.7958 78.7828 92.7685 78.8917 92.7413 78.9733C92.7141 79.0551 92.6597 79.1094 92.6052 79.1639C92.5508 79.2184 92.4964 79.2184 92.4148 79.2184H84.9578C84.7129 79.2184 84.4951 79.1639 84.3318 79.0278C84.1686 78.8917 84.0869 78.6739 84.0869 78.3744V66.668C84.0869 66.3685 84.1686 66.1507 84.3318 66.0146C84.4951 65.8784 84.7129 65.824 84.9578 65.824H92.3603C92.4419 65.824 92.4964 65.8512 92.5508 65.8784C92.6052 65.9057 92.6597 65.9602 92.6869 66.069C92.7141 66.1507 92.7413 66.2596 92.7685 66.3957C92.7957 66.5318 92.7957 66.6952 92.7957 66.913C92.7957 67.1035 92.7957 67.2669 92.7685 67.403C92.7413 67.5391 92.7141 67.648 92.6869 67.7297C92.6597 67.8114 92.6052 67.8659 92.5508 67.9203C92.4964 67.9475 92.4419 67.9747 92.3603 67.9747H87.0533V71.2417H91.5439C91.6255 71.2417 91.68 71.2689 91.7343 71.2961C91.7888 71.3233 91.8433 71.405 91.8704 71.4594C91.8976 71.5411 91.9249 71.65 91.9521 71.7861C91.9793 71.9223 91.9793 72.0856 91.9793 72.2761C91.9793 72.4667 91.9793 72.6301 91.9521 72.7662C91.9249 72.9024 91.8976 73.0112 91.8704 73.0929C91.8433 73.1746 91.7888 73.229 91.7343 73.2562C91.68 73.2835 91.6255 73.3107 91.5439 73.3107H87.0533V77.0949H92.4148C92.4964 77.0949 92.5508 77.1221 92.6052 77.1494C92.6597 77.1766 92.7141 77.2582 92.7413 77.3399C92.7685 77.4216 92.7958 77.5305 92.823 77.6666C92.8502 77.7755 92.8502 77.9388 92.8502 78.1566Z" fill="#F16123"/>
<path id="Vector_7" d="M53.7149 34.6794C53.7965 29.1801 52.0275 23.6807 48.5167 19.216C48.4624 19.1344 48.4079 19.0526 48.3535 18.9982C44.244 13.8528 38.0935 10.4226 31.1264 9.93251C31.0992 9.93251 31.072 9.93251 31.0175 9.93251C30.6638 9.90524 30.3099 9.90524 29.9562 9.87805C29.9017 9.87805 29.8473 9.87805 29.7929 9.87805C29.6568 9.87805 29.5207 9.87805 29.3847 9.87805C29.1669 9.87805 28.9765 9.87805 28.7587 9.87805C28.7587 9.87805 28.7587 9.87805 28.7314 9.87805C28.3505 9.87805 27.9967 9.90524 27.6156 9.93251C27.5884 9.93251 27.5884 9.93251 27.5613 9.93251C27.1802 9.9597 26.8265 9.98697 26.4454 10.0414H26.4182C26.0644 10.0959 25.6834 10.1503 25.3296 10.2047H25.3023C24.9486 10.2592 24.5676 10.3409 24.2138 10.4226C24.1865 10.4226 24.1593 10.4226 24.1322 10.4497C23.7783 10.5315 23.4517 10.6131 23.1252 10.6948C23.0707 10.6948 23.0435 10.722 22.9891 10.722C22.6898 10.8037 22.3632 10.8853 22.0638 10.9942C21.9822 11.0215 21.9005 11.0487 21.8189 11.076C21.5467 11.1576 21.3018 11.2393 21.0568 11.3482C20.9208 11.4026 20.7847 11.4571 20.6486 11.5116C20.4853 11.5659 20.3492 11.6477 20.1859 11.7021C16.4576 13.2266 13.0829 15.6496 10.3886 18.9982C8.12972 21.8295 6.60568 24.9876 5.76202 28.2817C5.76202 28.3361 5.7348 28.3906 5.7348 28.4451C5.65316 28.7445 5.59873 29.044 5.5443 29.3435C5.51708 29.4796 5.48987 29.6157 5.46266 29.7518C5.40823 29.9696 5.38101 30.2147 5.35379 30.4324C5.32658 30.623 5.29936 30.8408 5.27215 31.0314C5.24493 31.1947 5.21772 31.358 5.21772 31.5214C5.19051 31.7664 5.16329 32.0386 5.13608 32.3109C5.13608 32.4198 5.10886 32.5287 5.10886 32.6104C5.02721 32.9371 5.02721 33.2637 5 33.5632C5 33.6177 5 33.6721 5 33.6993V33.7266C5 34.0805 5 34.4616 5 34.8155C5 34.8428 5 34.87 5 34.87C5.02721 36.0679 5.13608 37.2385 5.35379 38.3819V38.4092C5.40823 38.7631 5.48987 39.1442 5.57151 39.4982C5.57151 39.5526 5.59873 39.607 5.59873 39.6887C5.68038 39.9882 5.7348 40.2876 5.81645 40.5871C5.84366 40.7233 5.8981 40.8865 5.95252 41.0226C5.97974 41.1316 6.00695 41.2405 6.03417 41.3494C7.47656 46.1136 10.3614 50.4695 14.6069 53.7092C16.2943 54.9887 18.0632 55.9961 19.9138 56.7856L19.941 56.7583C22.8802 58.0107 26.1461 58.6913 29.548 58.664C31.5074 58.6368 33.4396 58.3918 35.263 57.9562C35.4808 57.9018 35.6169 57.7112 35.6169 57.4934V55.9688C35.6169 52.5386 32.8138 49.7616 29.3847 49.7616H29.3574C19.7777 49.7616 12.212 41.0226 14.2259 31.0585C15.124 26.7571 18.6075 22.5374 22.717 20.3867C22.717 20.3867 22.7441 20.3867 22.7441 20.3594C26.7448 18.6443 31.8068 18.4537 35.5896 20.1144C35.6169 20.1416 35.6441 20.1416 35.6985 20.1688C35.8345 20.2233 35.9979 20.305 36.1339 20.3867C41.5769 23.1091 44.5434 28.2817 44.7884 33.6177C44.7884 33.6448 44.7884 33.6993 44.7884 33.7266V35.0605C44.7884 35.0878 44.7884 35.1422 44.7884 35.1694C44.7884 35.1967 44.7884 35.2239 44.7884 35.2783V58.2557C44.7884 58.4735 44.9788 58.664 45.1966 58.664C49.9048 58.664 53.7421 54.8526 53.7421 50.1156V34.7611C53.7421 34.7338 53.7149 34.7067 53.7149 34.6794Z" fill="#F16123"/>
<path id="Vector_8" d="M95.0001 25.2869H68.2477C63.3218 25.2869 59.2939 21.2849 59.2939 16.3301H86.0464C90.9995 16.3301 95.0001 20.332 95.0001 25.2869Z" fill="#F16123"/>
<path id="Vector_9" d="M94.5372 35.2512C94.5372 37.7286 92.5234 39.716 90.074 39.716H61.1989C59.9198 39.716 58.8584 38.6815 58.8584 37.3747V32.5833C58.8584 31.5759 59.6748 30.7864 60.6545 30.7864H90.074C92.5505 30.7864 94.5372 32.801 94.5372 35.2512Z" fill="#F16123"/>
<path id="Vector_10" d="M94.483 45.2698C94.483 50.1974 90.4823 54.2266 85.5292 54.2266H58.7769C58.7769 49.299 62.7775 45.2698 67.7306 45.2698H94.483Z" fill="#F16123"/>
<path id="Vector_11" d="M29.3846 42.6289C33.7885 42.6289 37.3586 39.0576 37.3586 34.6522C37.3586 30.2468 33.7885 26.6754 29.3846 26.6754C24.9807 26.6754 21.4106 30.2468 21.4106 34.6522C21.4106 39.0576 24.9807 42.6289 29.3846 42.6289Z" fill="#F16123"/>
</g>
<defs>
<filter id="filter0_d_843_15219" x="0" y="-3" width="100" height="100" filterUnits="userSpaceOnUse" color-interpolation-filters="sRGB">
<feFlood flood-opacity="0" result="BackgroundImageFix"/>
<feColorMatrix in="SourceAlpha" type="matrix" values="0 0 0 0 0 0 0 0 0 0 0 0 0 0 0 0 0 0 127 0" result="hardAlpha"/>
<feOffset dy="2"/>
<feGaussianBlur stdDeviation="2.5"/>
<feComposite in2="hardAlpha" operator="out"/>
<feColorMatrix type="matrix" values="0 0 0 0 0 0 0 0 0 0 0 0 0 0 0 0 0 0 0.1 0"/>
<feBlend mode="normal" in2="BackgroundImageFix" result="effect1_dropShadow_843_15219"/>
<feBlend mode="normal" in="SourceGraphic" in2="effect1_dropShadow_843_15219" result="shape"/>
</filter>
</defs>
</svg>
