<svg width="116" height="89" viewBox="0 0 116 89" fill="none" xmlns="http://www.w3.org/2000/svg">
<path id="TGS Logo" d="M52.8376 27.0025L46.7789 20.9971H34.97L28.9112 27.0025L28.9112 61.5201L34.97 67.5255L46.7789 67.5255L52.8376 61.5201V27.0025ZM46.0529 58.7343L43.97 60.7988H37.7823L35.6993 58.7343V29.7883L37.7823 27.7237H43.97L46.0529 29.7883V58.7343ZM64.0953 47.3657L74.4505 47.6246V67.5255H81.2353L81.2353 27.0025L75.1765 20.9971H63.3676L57.3088 27.0025L57.3088 67.5255H64.0936L64.0936 47.3657H64.0953ZM64.0953 29.7883L66.1782 27.7237H72.3659L74.4488 29.7883V40.6407L64.0936 40.6407V29.7883H64.0953ZM108.708 36.9857V29.7883L106.626 27.7237H106.544L103.443 30.797L103.443 60.8005L112.103 60.8005V67.5255H87.9997V60.8005H96.6587L96.6587 30.797L93.5581 27.7237H93.4767L91.3937 29.7883V36.9857H84.609V27.0025L90.6678 20.9971H96.3704L100.054 24.6487L103.739 20.9971H109.441L115.5 27.0025V36.9857L108.715 36.9857H108.708ZM18.366 67.5255H6.55879L0.5 61.5201L0.5 27.0025L6.55879 20.9971L18.3677 20.9971L24.4248 27.0025L24.4248 36.9857L17.64 36.9857L17.64 29.7883L15.5571 27.7237L9.36938 27.7237L7.28646 29.7883L7.28646 58.7343L9.36938 60.7988H15.5571L17.64 58.7343L17.64 49.6892L15.5571 47.6246H10.767V40.8996H18.3677L24.4248 46.905L24.4248 61.5218L18.366 67.5272V67.5255ZM43.8444 2.14527L40.6488 2.14527V0L49.3062 0V2.14527L46.1106 2.14527V11.9183H43.8427V2.14527H43.8444ZM53.55 11.9183H51.2822V0L53.55 0V4.87056H57.4326V0L59.7004 0V11.9183H57.4326V7.01415H53.55V11.9183ZM69.9556 11.9183H62.1565V0L69.7487 0V2.14527L64.4226 2.14527V4.86888L69.5417 4.86888V7.01415L64.4226 7.01415V9.77307H69.9539V11.9183H69.9556ZM25.7359 85.1516V85.3567C25.7359 85.9132 25.6358 86.4159 25.4357 86.8631C25.2355 87.312 24.9455 87.6954 24.5689 88.0131C24.1907 88.3309 23.7327 88.5746 23.195 88.7444C22.6573 88.9143 22.0501 89 21.3733 89C20.5829 89 19.8875 88.889 19.2853 88.6688C18.6849 88.4469 18.1828 88.1409 17.7825 87.7492C17.3822 87.3574 17.0786 86.8984 16.8716 86.3705C16.6647 85.8426 16.5629 85.266 16.5629 84.6422V84.1311H18.8307V84.5397C18.8307 85.2542 19.0394 85.8258 19.4583 86.2512C19.8756 86.6765 20.5252 86.89 21.4089 86.89C22.0959 86.89 22.6048 86.7421 22.9372 86.4479C23.2697 86.1537 23.4359 85.8006 23.4359 85.3921C23.4359 85.1987 23.402 85.0155 23.3324 84.8389C23.2629 84.6624 23.1441 84.5044 22.9711 84.3615C22.7998 84.2202 22.564 84.0925 22.2672 83.9781C21.9687 83.8655 21.5921 83.768 21.1342 83.689C20.5269 83.5864 19.9723 83.4536 19.4685 83.2888C18.9647 83.1241 18.5271 82.9055 18.1539 82.6331C17.7825 82.3608 17.4924 82.0195 17.2872 81.6109C17.082 81.2024 16.9785 80.7031 16.9785 80.1129V80.0104C16.9785 79.5228 17.0786 79.0706 17.2787 78.657C17.4789 78.2434 17.7604 77.8819 18.12 77.576C18.4813 77.27 18.9155 77.0312 19.4261 76.8614C19.9349 76.6916 20.5049 76.6059 21.1359 76.6059C21.8466 76.6059 22.4758 76.7051 23.0254 76.9035C23.575 77.1018 24.0363 77.3725 24.4078 77.7121C24.7793 78.0534 25.0608 78.4452 25.2491 78.8873C25.4374 79.3295 25.5324 79.7952 25.5324 80.2828V80.8964H23.2646V80.4879C23.2646 80.0121 23.078 79.5968 22.7065 79.2454C22.3351 78.894 21.8109 78.7175 21.1342 78.7175C20.5608 78.7175 20.1097 78.8335 19.7772 79.0672C19.4447 79.2992 19.2785 79.6153 19.2785 80.0121C19.2785 80.2155 19.3192 80.4004 19.399 80.5652C19.4787 80.73 19.6195 80.8779 19.8196 81.0074C20.0198 81.1385 20.2827 81.2545 20.61 81.3571C20.9357 81.4596 21.3513 81.5555 21.855 81.6462C23.1153 81.8732 24.077 82.2532 24.7403 82.7878C25.4052 83.3208 25.7359 84.1109 25.7359 85.155V85.1516ZM31.7133 76.6042C30.3275 76.6042 29.2419 77.0295 28.4583 77.8819C27.673 78.7326 27.2811 79.9314 27.2811 81.4748V84.1311C27.2811 85.7199 27.673 86.9287 28.4583 87.7576C29.2419 88.5864 30.3275 89 31.7133 89C33.0991 89 34.1846 88.5864 34.9683 87.7576C35.7519 86.9287 36.1454 85.7199 36.1454 84.1311V81.4748C36.1454 79.9314 35.7536 78.7343 34.9683 77.8819C34.1829 77.0312 33.0991 76.6042 31.7133 76.6042ZM33.8776 84.2656C33.8776 84.6624 33.8437 85.0255 33.7742 85.3551C33.7063 85.6846 33.5859 85.9687 33.4129 86.2058C33.2399 86.4428 33.0177 86.6294 32.7429 86.7589C32.4681 86.89 32.1238 86.9556 31.7116 86.9556C31.2994 86.9556 30.9551 86.89 30.6803 86.7589C30.4055 86.6278 30.1816 86.4445 30.0103 86.2058C29.839 85.967 29.7186 85.6846 29.649 85.3551C29.5795 85.0255 29.5456 84.6624 29.5456 84.2656V81.3369C29.5456 80.962 29.5863 80.6106 29.666 80.2811C29.7457 79.9515 29.8729 79.6674 30.0442 79.4304C30.2156 79.1916 30.4395 79.0016 30.7142 78.8604C30.989 78.7192 31.3215 78.6469 31.7099 78.6469C32.0983 78.6469 32.4308 78.7175 32.7056 78.8604C32.9803 79.0033 33.2042 79.1933 33.3756 79.4304C33.5469 79.6691 33.6724 79.9532 33.7538 80.2811C33.8335 80.6106 33.8742 80.962 33.8742 81.3369V84.2656H33.8776ZM40.6454 86.616L46.1089 86.616V88.7613L38.3793 88.7613V76.8429H40.6471V86.616H40.6454ZM54.8001 76.8429H57.0679V84.6405C57.0679 86.0023 56.705 87.0699 55.9773 87.8416C55.2496 88.6133 54.1709 89 52.7393 89C51.3077 89 50.2289 88.615 49.5012 87.8416C48.7736 87.0699 48.4106 86.0023 48.4106 84.6405V76.8429H50.6784V84.6405C50.6784 85.345 50.8446 85.8947 51.1771 86.2915C51.5095 86.6883 52.0303 86.8867 52.741 86.8867C53.4517 86.8867 53.9724 86.6883 54.3048 86.2915C54.6373 85.8947 54.8035 85.3433 54.8035 84.6405V76.8429H54.8001ZM58.9236 76.8429H67.5809V78.9882H64.3853V88.7613H62.1175V78.9882H58.9219V76.8429H58.9236ZM69.7453 76.8429H77.7852V78.9882H74.9V86.616H77.7852V88.7613H69.7453V86.616H72.6305V78.9882H69.7453V76.8429ZM84.2782 76.6042C82.8924 76.6042 81.8069 77.0295 81.0232 77.8819C80.2379 78.7326 79.8461 79.9314 79.8461 81.4748V84.1311C79.8461 85.7199 80.2379 86.9287 81.0232 87.7576C81.8069 88.5864 82.8924 89 84.2782 89C85.664 89 86.7496 88.5864 87.5332 87.7576C88.3169 86.9287 88.7104 85.7199 88.7104 84.1311V81.4748C88.7104 79.9314 88.3186 78.7343 87.5332 77.8819C86.7479 77.0312 85.664 76.6042 84.2782 76.6042ZM86.4426 84.2656C86.4426 84.6624 86.4086 85.0255 86.3391 85.3551C86.2696 85.6846 86.1508 85.9687 85.9778 86.2058C85.8048 86.4428 85.5826 86.6294 85.3078 86.7589C85.033 86.89 84.6887 86.9556 84.2765 86.9556C83.8644 86.9556 83.52 86.89 83.2452 86.7589C82.9705 86.6278 82.7466 86.4445 82.5753 86.2058C82.4039 85.967 82.2835 85.6846 82.214 85.3551C82.1444 85.0255 82.1105 84.6624 82.1105 84.2656V81.3369C82.1105 80.962 82.1512 80.6106 82.2309 80.2811C82.3106 79.9515 82.4362 79.6674 82.6092 79.4304C82.7805 79.1916 83.0044 79.0016 83.2792 78.8604C83.554 78.7192 83.8864 78.6469 84.2748 78.6469C84.6633 78.6469 84.9957 78.7175 85.2705 78.8604C85.5453 79.0033 85.7692 79.1933 85.9405 79.4304C86.1118 79.6691 86.2373 79.9532 86.3187 80.2811C86.3985 80.6106 86.4392 80.962 86.4392 81.3369V84.2656H86.4426ZM96.7317 76.8412H98.9995V88.7596H94.5673L93.1595 77.9643H92.8508V88.7596H90.583V76.8412H95.0151L96.423 87.6365H96.7317V76.8412Z" fill="#F4F4F4"/>
</svg>
