<svg width="27" height="27" viewBox="0 0 27 27" fill="none" xmlns="http://www.w3.org/2000/svg">
<g id="tiktok">
<rect width="27" height="27" rx="8" fill="black"/>
<path id="vector" d="M7.13043 16.7C7.26229 15.6082 7.71004 14.997 8.55381 14.3704C9.7611 13.5218 11.2692 14.0018 11.2692 14.0018V11.154C11.6358 11.1446 12.0026 11.1664 12.3652 11.2189V14.8838C12.3652 14.8838 10.8576 14.4037 9.6503 15.2528C8.80699 15.879 8.35832 16.4907 8.22692 17.5824C8.2228 18.1752 8.33406 18.9501 8.84636 19.6202C8.7197 19.5552 8.59059 19.4812 8.45904 19.3981C7.3305 18.6403 7.12494 17.5034 7.13043 16.7ZM18.5921 5.88844C17.7616 4.97837 17.4475 4.05953 17.334 3.41406H18.3788C18.3788 3.41406 18.1704 5.1065 19.6886 6.77086L19.7097 6.79324C19.3005 6.53586 18.9253 6.23206 18.5921 5.88844ZM23.625 8.46857V12.0597C23.625 12.0597 22.2918 12.0075 21.3052 11.7565C19.9276 11.4054 19.0421 10.867 19.0421 10.867C19.0421 10.867 18.4305 10.4831 18.381 10.4563V17.872C18.381 18.2849 18.268 19.3161 17.9232 20.1761C17.4732 21.3012 16.7787 22.0397 16.6509 22.1906C16.6509 22.1906 15.8062 23.1889 14.316 23.8611C12.9727 24.4676 11.7934 24.4522 11.4409 24.4676C11.4409 24.4676 9.40216 24.5483 7.56766 23.3561C7.17096 23.0933 6.80065 22.7957 6.46155 22.4671L6.4707 22.4737C8.30567 23.6659 10.3439 23.5851 10.3439 23.5851C10.6969 23.5698 11.8763 23.5851 13.2191 22.9787C14.7079 22.3065 15.554 21.3082 15.554 21.3082C15.6803 21.1573 16.3781 20.4188 16.8263 19.2933C17.1701 18.4337 17.2841 17.402 17.2841 16.9891V9.57434C17.3335 9.60154 17.9447 9.98549 17.9447 9.98549C17.9447 9.98549 18.8306 10.5243 20.2082 10.8749C21.1953 11.1259 22.528 11.1781 22.528 11.1781V8.36413C22.984 8.46637 23.3727 8.49402 23.625 8.46857Z" fill="#EE1D52"/>
<path id="vector_2" d="M22.5285 8.36413V11.1773C22.5285 11.1773 21.1958 11.125 20.2087 10.8741C18.8311 10.523 17.9452 9.98461 17.9452 9.98461C17.9452 9.98461 17.334 9.60066 17.2845 9.57346V16.99C17.2845 17.4029 17.1715 18.4345 16.8267 19.2941C16.3767 20.4196 15.6822 21.1581 15.5544 21.3091C15.5544 21.3091 14.7093 22.3074 13.2195 22.9796C11.8767 23.586 10.6973 23.5707 10.3444 23.586C10.3444 23.586 8.30612 23.6667 6.47116 22.4745L6.462 22.468C6.26827 22.2804 6.08591 22.0823 5.91581 21.8747C5.33025 21.1608 4.97132 20.3165 4.88113 20.0756C4.88097 20.0746 4.88097 20.0736 4.88113 20.0726C4.736 19.6539 4.43108 18.6487 4.47275 17.675C4.54646 15.9571 5.15079 14.9027 5.31057 14.6385C5.73374 13.9181 6.28412 13.2736 6.93722 12.7337C7.51355 12.2677 8.16679 11.897 8.87016 11.6367C9.63053 11.331 10.4448 11.1672 11.2692 11.154V14.0018C11.2692 14.0018 9.76109 13.5235 8.55426 14.3704C7.71049 14.997 7.26274 15.6082 7.13088 16.7C7.12539 17.5034 7.33095 18.6403 8.45858 19.3986C8.59013 19.4819 8.71923 19.556 8.8459 19.6206C9.0429 19.8767 9.28267 20.0998 9.55553 20.281C10.6571 20.9782 11.58 21.0269 12.7603 20.5741C13.5473 20.2713 14.1397 19.589 14.4144 18.833C14.587 18.3608 14.5847 17.8856 14.5847 17.3941V3.41406H17.3317C17.4452 4.05953 17.7593 4.97837 18.5898 5.88844C18.923 6.23206 19.2982 6.53586 19.7074 6.79324C19.8282 6.9183 20.4463 7.53656 21.2397 7.91612C21.65 8.11232 22.0824 8.26264 22.5285 8.36413Z" fill="white"/>
<path id="vector_3" d="M3.78784 19.2012V19.2034L3.856 19.3881C3.84817 19.3666 3.82284 19.3012 3.78784 19.2012Z" fill="#69C9D0"/>
<path id="vector_4" d="M8.87019 11.6367C8.16682 11.897 7.51357 12.2678 6.93725 12.7337C6.28394 13.2749 5.73369 13.9208 5.31105 14.6425C5.15127 14.9058 4.54694 15.9611 4.47323 17.679C4.43157 18.6527 4.73648 19.6579 4.88161 20.0766C4.88145 20.0776 4.88145 20.0786 4.88161 20.0796C4.97318 20.3183 5.33074 21.1626 5.9163 21.8787C6.08639 22.0863 6.26875 22.2844 6.46248 22.472C5.84176 22.0605 5.28817 21.563 4.8198 20.9958C4.23928 20.2881 3.88126 19.4526 3.78787 19.206C3.78776 19.2042 3.78776 19.2025 3.78787 19.2007V19.1976C3.64228 18.7795 3.33645 17.7737 3.37903 16.7987C3.45274 15.0809 4.05707 14.0264 4.21685 13.7623C4.63936 13.0405 5.18963 12.3946 5.84304 11.8535C6.41925 11.3874 7.07253 11.0166 7.77599 10.7565C8.21477 10.582 8.67187 10.4533 9.13939 10.3726C9.84397 10.2547 10.5636 10.2445 11.2715 10.3423V11.1541C10.4463 11.167 9.63127 11.3308 8.87019 11.6367Z" fill="#69C9D0"/>
<path id="vector_5" d="M17.3339 3.41411H14.587V17.3946C14.587 17.8861 14.587 18.36 14.4167 18.8334C14.1392 19.5891 13.5491 20.2714 12.7626 20.5742C11.5818 21.0287 10.6588 20.9783 9.55778 20.281C9.28444 20.1007 9.04405 19.8783 8.84631 19.6228C9.7844 20.1024 10.6241 20.0941 11.6642 19.6939C12.4503 19.3912 13.0414 18.7088 13.3179 17.9528C13.491 17.4806 13.4887 17.0054 13.4887 16.5144V2.53125H17.2818C17.2818 2.53125 17.2392 2.87878 17.3339 3.41411ZM22.5284 7.58619V8.36418C22.0831 8.26253 21.6515 8.11221 21.2419 7.91617C20.4485 7.53661 19.8305 6.91834 19.7096 6.79329C19.8499 6.88154 19.9954 6.96183 20.1455 7.03375C21.1101 7.49536 22.0601 7.63315 22.5284 7.58619Z" fill="#69C9D0"/>
</g>
</svg>
