<svg width="87" height="68" viewBox="0 0 87 68" fill="none" xmlns="http://www.w3.org/2000/svg">
<path id="Vector" d="M39.5946 20.6311L35.011 16.0427H26.0773L21.4937 20.6311V47.0041L26.0773 51.5925H35.011L39.5946 47.0041V20.6311ZM34.4617 44.8756L32.886 46.453H28.2048L26.6291 44.8756V22.7596L28.2048 21.1822H32.886L34.4617 22.7596V44.8756ZM48.1112 36.1895L55.9452 36.3873V51.5925H61.078V20.6311L56.4944 16.0427H47.5607L42.9771 20.6311V51.5925H48.1099V36.1895H48.1112ZM48.1112 22.7596L49.687 21.1822H54.3681L55.9439 22.7596V31.0513H48.1099V22.7596H48.1112ZM81.8621 28.2587V22.7596L80.2863 21.1822H80.2247L77.879 23.5303V46.4543H84.4297V51.5925H66.1954V46.4543H72.7462V23.5303L70.4005 21.1822H70.3389L68.7631 22.7596V28.2587H63.6303V20.6311L68.2139 16.0427H72.528L75.3151 18.8327L78.1023 16.0427H82.4164L87 20.6311V28.2587H81.8672H81.8621ZM13.516 51.5925H4.58361L0 47.0041V20.6311L4.58361 16.0427H13.5173L18.0996 20.6311V28.2587H12.9668V22.7596L11.391 21.1822H6.70988L5.1341 22.7596V44.8756L6.70988 46.453H11.391L12.9668 44.8756V37.9647L11.391 36.3873H7.76724V31.2491H13.5173L18.0996 35.8375V47.0054L13.516 51.5938V51.5925ZM32.791 1.63908H30.3735V0H36.9229V1.63908H34.5054V9.10615H32.7897V1.63908H32.791ZM40.1335 9.10615H38.4179V0H40.1335V3.72133H43.0708V0H44.7864V9.10615H43.0708V5.35913H40.1335V9.10615ZM52.5447 9.10615H46.6445V0H52.3881V1.63908H48.3589V3.72004H52.2316V5.35913H48.3589V7.46706H52.5434V9.10615H52.5447ZM19.0915 65.0597V65.2164C19.0915 65.6416 19.0158 66.0257 18.8644 66.3673C18.713 66.7103 18.4935 67.0032 18.2087 67.246C17.9225 67.4888 17.5761 67.675 17.1693 67.8047C16.7625 67.9345 16.3031 68 15.7911 68C15.1931 68 14.667 67.9152 14.2115 67.7469C13.7572 67.5774 13.3774 67.3436 13.0746 67.0443C12.7717 66.745 12.542 66.3943 12.3855 65.991C12.2289 65.5876 12.1519 65.147 12.1519 64.6705V64.28H13.8676V64.5921C13.8676 65.138 14.0254 65.5748 14.3424 65.8998C14.658 66.2248 15.1495 66.3879 15.8181 66.3879C16.3378 66.3879 16.7227 66.2749 16.9742 66.0501C17.2257 65.8253 17.3515 65.5555 17.3515 65.2434C17.3515 65.0956 17.3258 64.9556 17.2732 64.8207C17.2206 64.6859 17.1308 64.5651 16.9999 64.4559C16.8703 64.348 16.6919 64.2504 16.4674 64.1631C16.2415 64.077 15.9567 64.0025 15.6102 63.9421C15.1508 63.8638 14.7312 63.7623 14.3501 63.6364C13.969 63.5105 13.6379 63.3435 13.3556 63.1354C13.0746 62.9273 12.8551 62.6666 12.6999 62.3544C12.5446 62.0423 12.4663 61.6608 12.4663 61.2099V61.1315C12.4663 60.759 12.542 60.4135 12.6935 60.0975C12.8449 59.7815 13.0579 59.5053 13.3299 59.2715C13.6033 59.0377 13.9318 58.8553 14.318 58.7256C14.703 58.5958 15.1341 58.5303 15.6115 58.5303C16.1491 58.5303 16.6252 58.6061 17.041 58.7577C17.4567 58.9093 17.8058 59.1161 18.0868 59.3756C18.3678 59.6363 18.5808 59.9356 18.7232 60.2735C18.8657 60.6113 18.9375 60.9671 18.9375 61.3396V61.8085H17.2219V61.4963C17.2219 61.1328 17.0807 60.8155 16.7997 60.5471C16.5187 60.2786 16.1222 60.1437 15.6102 60.1437C15.1765 60.1437 14.8351 60.2324 14.5836 60.4109C14.3321 60.5882 14.2064 60.8297 14.2064 61.1328C14.2064 61.2883 14.2372 61.4296 14.2975 61.5554C14.3578 61.6813 14.4643 61.7944 14.6157 61.8933C14.7671 61.9935 14.966 62.0821 15.2137 62.1605C15.4601 62.2388 15.7744 62.312 16.1555 62.3814C17.109 62.5548 17.8365 62.8451 18.3383 63.2536C18.8413 63.6608 19.0915 64.2645 19.0915 65.0622V65.0597ZM23.6135 58.529C22.5652 58.529 21.7439 58.854 21.1511 59.5053C20.5569 60.1553 20.2605 61.0712 20.2605 62.2504V64.28C20.2605 65.4939 20.5569 66.4174 21.1511 67.0507C21.7439 67.684 22.5652 68 23.6135 68C24.6619 68 25.4832 67.684 26.076 67.0507C26.6688 66.4174 26.9665 65.4939 26.9665 64.28V62.2504C26.9665 61.0712 26.6701 60.1566 26.076 59.5053C25.4819 58.8553 24.6619 58.529 23.6135 58.529ZM25.2509 64.3827C25.2509 64.6859 25.2252 64.9633 25.1726 65.2151C25.1213 65.4669 25.0302 65.684 24.8993 65.8651C24.7684 66.0462 24.6003 66.1888 24.3924 66.2877C24.1846 66.3879 23.9241 66.438 23.6123 66.438C23.3004 66.438 23.0399 66.3879 22.8321 66.2877C22.6242 66.1875 22.4548 66.0475 22.3252 65.8651C22.1956 65.6827 22.1045 65.4669 22.0519 65.2151C21.9993 64.9633 21.9736 64.6859 21.9736 64.3827V62.145C21.9736 61.8586 22.0044 61.5901 22.0647 61.3383C22.125 61.0866 22.2213 60.8695 22.3509 60.6884C22.4805 60.506 22.6498 60.3608 22.8577 60.2529C23.0656 60.145 23.3171 60.0898 23.611 60.0898C23.9048 60.0898 24.1563 60.1437 24.3642 60.2529C24.5721 60.3621 24.7415 60.5072 24.8711 60.6884C25.0007 60.8708 25.0956 61.0879 25.1572 61.3383C25.2175 61.5901 25.2483 61.8586 25.2483 62.145V64.3827H25.2509ZM30.3709 66.1785H34.5041V67.8176H28.6565V58.7115H30.3722V66.1785H30.3709ZM41.0792 58.7115H42.7949V64.6692C42.7949 65.7097 42.5203 66.5253 41.9698 67.1149C41.4193 67.7046 40.6032 68 39.5201 68C38.4371 68 37.621 67.7058 37.0705 67.1149C36.52 66.5253 36.2454 65.7097 36.2454 64.6692V58.7115H37.961V64.6692C37.961 65.2074 38.0868 65.6274 38.3383 65.9306C38.5898 66.2338 38.9838 66.3853 39.5214 66.3853C40.0591 66.3853 40.453 66.2338 40.7045 65.9306C40.956 65.6274 41.0818 65.2061 41.0818 64.6692V58.7115H41.0792ZM44.1987 58.7115H50.7482V60.3505H48.3306V67.8176H46.615V60.3505H44.1974V58.7115H44.1987ZM52.3856 58.7115H58.4679V60.3505H56.2852V66.1785H58.4679V67.8176H52.3856V66.1785H54.5683V60.3505H52.3856V58.7115ZM63.3801 58.529C62.3317 58.529 61.5104 58.854 60.9176 59.5053C60.3235 60.1553 60.027 61.0712 60.027 62.2504V64.28C60.027 65.4939 60.3235 66.4174 60.9176 67.0507C61.5104 67.684 62.3317 68 63.3801 68C64.4284 68 65.2497 67.684 65.8425 67.0507C66.4354 66.4174 66.7331 65.4939 66.7331 64.28V62.2504C66.7331 61.0712 66.4366 60.1566 65.8425 59.5053C65.2484 58.8553 64.4284 58.529 63.3801 58.529ZM65.0174 64.3827C65.0174 64.6859 64.9918 64.9633 64.9391 65.2151C64.8865 65.4669 64.7967 65.684 64.6658 65.8651C64.5349 66.0462 64.3668 66.1888 64.159 66.2877C63.9511 66.3879 63.6906 66.438 63.3788 66.438C63.067 66.438 62.8065 66.3879 62.5986 66.2877C62.3907 66.1875 62.2213 66.0475 62.0917 65.8651C61.9621 65.6827 61.871 65.4669 61.8184 65.2151C61.7658 64.9633 61.7401 64.6859 61.7401 64.3827V62.145C61.7401 61.8586 61.7709 61.5901 61.8312 61.3383C61.8915 61.0866 61.9865 60.8695 62.1174 60.6884C62.247 60.506 62.4164 60.3608 62.6242 60.2529C62.8321 60.145 63.0836 60.0898 63.3775 60.0898C63.6713 60.0898 63.9228 60.1437 64.1307 60.2529C64.3386 60.3621 64.508 60.5072 64.6376 60.6884C64.7672 60.8708 64.8622 61.0879 64.9238 61.3383C64.9841 61.5901 65.0149 61.8586 65.0149 62.145V64.3827H65.0174ZM72.8013 58.7102H74.517V67.8163H71.164L70.0989 59.5682H69.8654V67.8163H68.1497V58.7102H71.5027L72.5678 66.9582H72.8013V58.7102Z" fill="#D5F284"/>
</svg>
